/* XPM */
static char *result[] = {
/* columns rows colors chars-per-pixel */
"32 32 122 2 ",
"   c #C4551D",
".  c #C5561D",
"X  c #AD4B1A",
"o  c #1A0D06",
"O  c #160B06",
"+  c #A94A19",
"@  c #C6561D",
"#  c #BE521C",
"$  c #35180A",
"%  c #000203",
"&  c #C7561D",
"*  c #AF4C1A",
"=  c #AA4A1A",
"-  c #BF531C",
";  c #36190A",
":  c #AE4C1A",
">  c #994317",
",  c #170B06",
"<  c #140A05",
"1  c #954117",
"2  c #AE4B1A",
"3  c #A84919",
"4  c #2F1609",
"5  c #1B0D06",
"6  c #170C06",
"7  c #050403",
"8  c #040303",
"9  c #190C06",
"0  c #080504",
"q  c #010203",
"w  c #150B05",
"e  c #120905",
"r  c gray1",
"t  c #130A05",
"y  c #020303",
"u  c #110905",
"i  c #AB4A1A",
"p  c #8B3D15",
"a  c #0E0804",
"s  c #1E0E07",
"d  c #9B4417",
"f  c #AA4A19",
"g  c #9E4518",
"h  c #221007",
"j  c #0B0604",
"k  c #873B15",
"l  c #AB4B1A",
"z  c #C8571E",
"x  c #A24718",
"c  c #0F0805",
"v  c #B54F1B",
"b  c #B8501B",
"n  c #271208",
"m  c #0C0704",
"M  c #A14618",
"N  c #B44E1B",
"B  c #C5551D",
"V  c #B74F1B",
"C  c #9C4418",
"Z  c #A24618",
"A  c #B7501B",
"S  c #9D4418",
"D  c #B9501C",
"F  c #964217",
"G  c #0E0805",
"H  c #200F07",
"J  c #241107",
"K  c #0B0704",
"L  c #924016",
"P  c #BA511C",
"I  c #281208",
"U  c #281308",
"Y  c #251108",
"T  c #090604",
"R  c #0A0604",
"E  c #020203",
"W  c #9B4418",
"Q  c #893C15",
"!  c #863B15",
"~  c #974217",
"^  c #2B1408",
"/  c #C0531D",
"(  c #BE531C",
")  c #35190A",
"_  c #C0531C",
"`  c #A44719",
"'  c #34180A",
"]  c #37190A",
"[  c #311609",
"{  c #090504",
"}  c #301609",
"|  c #100905",
" . c #040403",
".. c #070504",
"X. c #060403",
"o. c #8C3D15",
"O. c #8E3E16",
"+. c #733312",
"@. c #803814",
"#. c #8D3E16",
"$. c #833914",
"%. c #1C0E06",
"&. c #703112",
"*. c #C9571E",
"=. c #A34719",
"-. c #B64F1B",
";. c #B9511C",
":. c #9F4518",
">. c #CA571E",
",. c #C3551D",
"<. c #A04618",
"1. c #B34E1B",
"2. c #47200C",
"3. c #48200C",
"4. c #3B1B0B",
"5. c #411E0B",
"6. c #421E0C",
"7. c #100805",
"8. c #391A0A",
"9. c #000102",
"0. c #000103",
"q. c white",
/* pixels */
"                        . X o O + @                       # $ % ",
"                        . X o O + @                       # $ % ",
"                        . X o O + @                       # $ % ",
"                        . X o O + @                       # $ % ",
". . . . . . . . . . . . & * o O = & . . . . . . . . . . @ - ; % ",
"X X X X X X X X X X X X : > , < 1 * X X X X X X X X X X 2 3 4 % ",
"o o o o o o 5 5 o o o o o 6 7 8 , o o o o o 5 5 o o o o o 9 0 q ",
"w w w w w e r 7 t w w w w w O , w w w w w < 7 y u w w w w w O , ",
"+ + + + i p a s d = + + + + + + + + + + f g h j k l + + + + + + ",
"@ @ @ @ z x c h v & @ @ @ @ @ @ @ @ @ @ & b n m g z @ @ @ @ @ @ ",
"        @ M c h N B                     B V n m C @             ",
"        @ M c h N B                     B V n m C @             ",
"B B B B & Z c h N @ B B B B B B B B B B @ A n m S & B B B B B B ",
"A A A A D F G H 3 b A A A A A A A A A A b i J K L P A A A A A A ",
"n n n n I H 7 0 J n n n n n U U n n n n n Y T 8 H U n n n n U U ",
"m m m m m m a a m m m m m R y E R m m m m m a a m m m m m K 8 % ",
"W W W W W W W W W W W W S Q w e ! S W W W W W W W W W W C ~ ^ % ",
"@ @ @ @ @ @ @ @ @ @ @ @ z * o O i z @ @ @ @ @ @ @ @ @ @ & / ; % ",
"                        . X o O + @                       # $ % ",
"                        . X o O + @                       # $ % ",
"                        @ 2 o O + @                     B ( ) % ",
"# # # # # # # # # # # # _ 3 9 w ` _ # # # # # # # # # # ( b ' % ",
"] ] ] ] ] ] ] ] ] ] ] ] ] [ { 0 } ] ] ] ] ] ] ] ] ] ] ] ] $ | y ",
" . . . . .r % q 8  . . .8 7 ....7 8  . . .8 q % r  . . . . .X...",
"o.o.o.o.O.+.m 9 @.#.o.o.o.o.o.o.o.o.o.o.#.$.%.T &.O.o.o.o.o.o.o.",
"& & & & *.=.c h -.z & & & & & & & & & & z ;.n m :.>.& & & & & & ",
"        @ M c h N B                     B V n m C @             ",
"        @ M c h N B                     B V n m C @             ",
"        @ M c h N B                     B V n m C &             ",
",.,.,.,.@ <.c h 1.  ,.,.,.,.,.,.,.,.,.,.  -.n m C @ ,.,.,.,.,.,.",
"2.2.2.2.3.4...a 5.3.2.2.2.2.2.2.2.2.2.2.3.6.7.X.8.3.2.2.2.2.2.2.",
"9.9.9.9.9.% r y 0.9.9.9.9.9.9.9.9.9.9.9.9.0.y r % 9.9.9.9.9.9.9."
};
