/* XPM */
static char *result[] = {
/* columns rows colors chars-per-pixel */
"32 32 126 2 ",
"   c black",
".  c #010100",
"X  c #020200",
"o  c #020202",
"O  c #040300",
"+  c #040404",
"@  c #080600",
"#  c #0A0700",
"$  c #0E0B00",
"%  c gray3",
"&  c #0E0E0E",
"*  c #140F01",
"=  c #1A1401",
"-  c #1B1401",
";  c gray10",
":  c #1B1B1B",
">  c #1C1D1D",
",  c #2F2401",
"<  c #312501",
"1  c #302402",
"2  c #3B2D02",
"3  c #2C2A23",
"4  c #282929",
"5  c #2A2A2B",
"6  c #453402",
"7  c #463502",
"8  c #4B3902",
"9  c #4B3A07",
"0  c #513D02",
"q  c #694F03",
"w  c #6A5003",
"e  c #6A5103",
"r  c #6D5200",
"t  c #6E5303",
"y  c #705503",
"u  c #795C03",
"i  c #454543",
"p  c #4A4841",
"a  c #68686B",
"s  c #777261",
"d  c #71706E",
"f  c #797978",
"g  c #816204",
"h  c #916D02",
"j  c #936F04",
"k  c #967204",
"l  c #977204",
"z  c #8C711F",
"x  c #AB8103",
"c  c #AB8105",
"v  c #B89324",
"b  c #C69504",
"n  c #C89705",
"m  c #CA9804",
"M  c #CC9A06",
"N  c #C69D1F",
"B  c #D3A006",
"V  c #D7A306",
"C  c #DAA506",
"Z  c #DCA606",
"A  c #DEA806",
"S  c #E3AC06",
"D  c #EBB206",
"F  c #EFB507",
"G  c #EFB60A",
"H  c #F0B507",
"J  c #FBBE06",
"K  c #FBBE07",
"L  c #FCBF07",
"P  c #FFC002",
"I  c #FFC003",
"U  c #FFC004",
"Y  c #FFC005",
"T  c #FFC106",
"R  c #FFC107",
"E  c #FFC206",
"W  c #FFC207",
"Q  c #FFC307",
"!  c #FFC407",
"~  c #FFC507",
"^  c #FFC607",
"/  c #FFC707",
"(  c #FFC20A",
")  c #FFC20B",
"_  c #FFC30B",
"`  c #FBC216",
"'  c #FFC516",
"]  c #FFC517",
"[  c #FFC61B",
"{  c #FFCC32",
"}  c #878274",
"|  c #FFD659",
" . c #FFD859",
".. c #FFD85A",
"X. c #D9C37F",
"o. c #FFD969",
"O. c #FDD96A",
"+. c #FFDA6C",
"@. c #808184",
"#. c #9B9C9F",
"$. c #A6A7AA",
"%. c #A7A8AD",
"&. c #A8A9AC",
"*. c #F6DB8B",
"=. c #E1CE92",
"-. c #FFE180",
";. c #FFE491",
":. c #FFE494",
">. c #FFE595",
",. c #F9E29A",
"<. c #FFEA9D",
"1. c #FFEB9E",
"2. c #FFEC9E",
"3. c #EEDDAA",
"4. c #FFEDB6",
"5. c #FFEEB7",
"6. c #FFEEBB",
"7. c #D7D7D5",
"8. c #DADAD9",
"9. c #DEDDDC",
"0. c #FFF2C7",
"q. c #FBF0CD",
"w. c #FFF4D1",
"e. c #FFF6D2",
"r. c #FFFDF6",
"t. c None",
/* pixels */
"t.t.t.t.t.t.t.t.t.t.t.t.t.t.t.t.t.t.t.t.t.t.t.t.t.t.t.t.t.t.t.t.",
"t.t.t.t.t.t.t.t.t.t.t.t.t.t.t.t.t.t.t.t.t.t.t.t.t.t.t.t.t.t.t.t.",
"t.t.t.t.t.t.t.t.t.t.t.t.t.t.t.t.t.t.t.t.t.t.t.t.t.t.t.t.t.t.t.t.",
"t.t.t.t.t.t.t.t.t.t.t.t.t.t.t.t.t.t.t.t.t.t.t.t.t.t.t.t.t.t.t.t.",
"t.t.t.t.t.t.t.t.t.t.t.t.t.t.t.t.t.t.t.t.t.t.t.t.t.t.t.t.t.t.t.t.",
"t.t.t.t.t.t.t.t.t.t.t.t.t.t.t.t.t.t.t.t.t.t.t.t.t.t.t.t.t.t.t.t.",
"t.t.t.t.t.t.t.t.t.t.t.t.  & : ; ; %     t.t.t.t.t.t.t.t.t.t.t.t.",
"t.t.t.t.t.t.t.t.t.t.  o   f 9.8.7.i   .     t.t.t.t.t.t.t.t.t.t.",
"t.t.t.t.t.t.t.t.t.  > #.%.X. ...| N x g O   t.t.t.t.t.t.t.t.t.t.",
"t.t.t.t.t.t.t.t.  4 } ,.1.-.o.+.O.v m S w *   t.t.t.t.t.t.t.t.t.",
"t.t.t.t.t.t.t.t.  a e.' P ;.r.w.q.p r ! H <     t.t.t.t.t.t.t.t.",
"t.t.t.t.t.t.t.  + d 0.' U :.6.[ ` 9 t ! F 2 X   t.t.t.t.t.t.t.t.",
"t.t.t.t.t.t.t.o @.=.{ ) U :.4.( J 8 t Q K B 0     t.t.t.t.t.t.t.",
"t.t.t.t.t.t.t.o &.2.I R Y :.4.) K 8 t Q R ! e     t.t.t.t.t.t.t.",
"t.t.t.t.t.t.t.o $.<.T R Y :.4.) K 8 t Q R W q     t.t.t.t.t.t.t.",
"t.t.t.t.t.t.t.o $.<.T R Y :.4.) K 8 t Q R W q     t.t.t.t.t.t.t.",
"t.t.t.t.t.t.t.o $.<.T R Y :.4.) K 8 t Q R W q     t.t.t.t.t.t.t.",
"t.t.t.t.t.t.t.o $.<.T R Y :.4.) K 8 t Q R W q     t.t.t.t.t.t.t.",
"t.t.t.t.t.t.t.o &.2.I R Y :.4.) K 8 t Q R ! e     t.t.t.t.t.t.t.",
"t.t.t.t.t.t.t.o @.=.{ ) U >.5._ L 8 t Q K B 0     t.t.t.t.t.t.t.",
"t.t.t.t.t.t.t.  + d 0.' U *.3.G D 7 t ! F 2 X   t.t.t.t.t.t.t.t.",
"t.t.t.t.t.t.t.t.  a e.] E z 3 1 , # y ! H <     t.t.t.t.t.t.t.t.",
"t.t.t.t.t.t.t.t.  5 s t.^ b h j j k M S w *   t.t.t.t.t.t.t.t.t.",
"t.t.t.t.t.t.t.t.t.    t.l Z / ^ ~ n c g O   t.t.t.t.t.t.t.t.t.t.",
"t.t.t.t.t.t.t.t.t.t.      u A C V 6   .     t.t.t.t.t.t.t.t.t.t.",
"t.t.t.t.t.t.t.t.t.t.t.t.  $ - = = @     t.t.t.t.t.t.t.t.t.t.t.t.",
"t.t.t.t.t.t.t.t.t.t.t.t.t.t.t.t.t.t.t.t.t.t.t.t.t.t.t.t.t.t.t.t.",
"t.t.t.t.t.t.t.t.t.t.t.t.t.t.t.t.t.t.t.t.t.t.t.t.t.t.t.t.t.t.t.t.",
"t.t.t.t.t.t.t.t.t.t.t.t.t.t.t.t.t.t.t.t.t.t.t.t.t.t.t.t.t.t.t.t.",
"t.t.t.t.t.t.t.t.t.t.t.t.t.t.t.t.t.t.t.t.t.t.t.t.t.t.t.t.t.t.t.t.",
"t.t.t.t.t.t.t.t.t.t.t.t.t.t.t.t.t.t.t.t.t.t.t.t.t.t.t.t.t.t.t.t.",
"t.t.t.t.t.t.t.t.t.t.t.t.t.t.t.t.t.t.t.t.t.t.t.t.t.t.t.t.t.t.t.t."
};
