/* XPM */
static char *result[] = {
/* columns rows colors chars-per-pixel */
"32 32 144 2 ",
"   c #020203",
".  c gray4",
"X  c #0A0B0A",
"o  c #0C0C0C",
"O  c gray5",
"+  c gray6",
"@  c #041602",
"#  c #051702",
"$  c #091707",
"%  c #071806",
"&  c #0B1F00",
"*  c #0E1116",
"=  c #0F1116",
"-  c #0F1216",
";  c #101010",
":  c #101216",
">  c gray9",
",  c #181818",
"<  c #191919",
"1  c gray10",
"2  c gray11",
"3  c #1D1D1D",
"4  c gray12",
"5  c #062503",
"6  c #0C2000",
"7  c #0D2100",
"8  c #082A04",
"9  c #092A04",
"0  c #1C3D08",
"q  c #1A2B19",
"w  c #171920",
"e  c #181920",
"r  c #181A21",
"t  c #1A1C21",
"y  c #1B1C22",
"u  c #1F2021",
"i  c #202020",
"p  c #222222",
"a  c gray14",
"s  c #272727",
"d  c #2A2A2A",
"f  c #2C2C2C",
"g  c #353535",
"h  c gray27",
"j  c #4E4E4E",
"k  c #505050",
"l  c #515151",
"z  c gray32",
"x  c #565656",
"c  c gray34",
"v  c #585858",
"b  c gray35",
"n  c #5A5A5A",
"m  c #5B5B5B",
"M  c #5D5D5D",
"N  c gray37",
"B  c #5F5F5F",
"V  c #606060",
"C  c gray38",
"Z  c #626262",
"A  c #646464",
"S  c #656565",
"D  c gray40",
"F  c #676767",
"G  c #686868",
"H  c DimGray",
"J  c #6A6A6A",
"K  c gray42",
"L  c #6C6C6C",
"P  c gray44",
"I  c #717171",
"U  c #727272",
"Y  c #747474",
"T  c gray46",
"R  c #767676",
"E  c #777777",
"W  c gray47",
"Q  c #797979",
"!  c gray48",
"~  c #1A890C",
"^  c #1B8C0D",
"/  c #20910B",
"(  c #21920B",
")  c #2B9910",
"_  c #2B9A10",
"`  c #22A10B",
"'  c #32BD14",
"]  c #5BC222",
"[  c #65CA27",
"{  c #67D929",
"}  c #61E525",
"|  c #6BED2B",
" . c #6CEF2B",
".. c #6C7C9B",
"X. c #71819B",
"o. c #818181",
"O. c gray51",
"+. c #848484",
"@. c gray52",
"#. c gray53",
"$. c #888888",
"%. c #898989",
"&. c #8B8B8B",
"*. c gray56",
"=. c #909090",
"-. c #929292",
";. c gray58",
":. c #959595",
">. c gray59",
",. c #989898",
"<. c gray64",
"1. c #A5A5A5",
"2. c gray66",
"3. c #AAA9AA",
"4. c #B7B7B7",
"5. c gray74",
"6. c #CEFCB2",
"7. c #CFFEB3",
"8. c #97A0C1",
"9. c #98A1C1",
"0. c #ACB7DC",
"q. c #BAC2E2",
"w. c #C0C0C0",
"e. c #C1C1C1",
"r. c #C6C6C6",
"t. c #CBCBCB",
"y. c LightGray",
"u. c #D7D7D7",
"i. c #D0D3DC",
"p. c #DDDDDD",
"a. c gray87",
"s. c #DFDFDF",
"d. c #D5D8E3",
"f. c #DBDDE3",
"g. c #DCDDE2",
"h. c #E2E2E2",
"j. c gray89",
"k. c #E4E4E4",
"l. c #E6E6E6",
"z. c #ECECEC",
"x. c #FBFBFB",
"c. c #FDFDFD",
"v. c #FEFEFE",
"b. c None",
/* pixels */
"b.b.b.b.b.b.b.7 6 # b.b.b.b.b.b.b.b.b.b.b.b.b.b.b.b.b.b.b.b.b.b.",
"b.b.b.b.b.b.0 [ { ) 9 b.b.b.b.b.b.b.b.b.b.b.b.b.b.b.b.b.b.b.b.b.",
"b.b.b.b.b.& ] 6.7.} / @ b.b.b.b.b.b.b.b.b.b.b.b.b.b.b.b.b.b.b.b.",
"b.b.b.b.b.# _ |  .' ^ @ b.b.b.b.b.b.b.b.b.b.b.b.b.b.b.b.b.b.b.b.",
"b.b.b.b.b.b.8 ( ` ~ 5 b.b.b.b.b.b.b.b.b.b.b.b.b.b.b.b.b.b.b.b.b.",
"b.b.b.b.b.b.b.% q $ X b.b.b.b.b.b.b.b.b.b.b.b.b.b.b.b.b.b.b.b.b.",
"b.b.b.b.b.b.b.i 3.s h , O b.b.b.b.b.b.b.b.b.b.b.b.b.b.b.b.b.b.b.",
"b.b.b.b.b.b.b.a e.f x m l 1 ; ; b.b.b.b.b.b.b.b.b.b.b.b.b.b.b.b.",
"b.b.b.b.b.b.b.a e.f c D D H K V 2 + b.b.b.b.b.b.b.b.b.b.b.b.b.b.",
"b.b.b.b.b.b.b.a e.f c D F E Q E K B 2 O b.b.b.b.b.b.b.b.b.b.b.b.",
"b.b.b.b.b.b.b.a e.f c D H W $.%.&.#.J z , b.b.b.b.b.b.b.b.b.b.b.",
"b.b.b.b.b.b.b.a e.f c G T -.u.z.h.y.o.D z , b.b.b.b.b.b.b.b.b.b.",
"b.b.b.b.b.b.b.a e.f c H =.t.<.j.,.-.4.U A z , b.b.b.b.b.b.b.b.b.",
"b.b.b.b.b.b.b.a e.f x E y.;.%.s.#.o.w.Y A S z , b.b.b.b.b.b.b.b.",
"b.b.b.b.b.b.b.a e.f x Q p.%.;.j.:.+.w.Y A S S z > + b.b.b.b.b.b.",
"b.b.b.b.b.b.b.a e.f x Q a.1.k.c.z.r.5.I A S S A N B 3 ; b.b.b.b.",
"b.b.b.b.b.b.b.a e.f x R p.l.x.v.j.O.P F S S D G E E B z + b.b.b.",
"b.b.b.b.b.b.b.a e.f c J +.>.k.k.*.F S D D A n n H C 3 ; b.b.b.b.",
"b.b.b.b.b.b.b.a e.f c J R ! #.@.K A n v b l > O ; ; b.b.b.b.b.b.",
"b.b.b.b.b.b.b.a e.f b R Q Q W T M k > O O O b.b.b.b.b.b.b.b.b.b.",
"b.b.b.b.b.b.b.a e.f n W Q ! Q Z < o b.b.b.b.b.b.b.b.b.b.b.b.b.b.",
"b.b.b.b.b.b.b.a e.f n W W L V 3 b.b.b.b.b.b.b.b.b.b.b.b.b.b.b.b.",
"b.b.b.b.b.b.b.a e.d j H C 2 + b.b.b.b.b.b.b.b.b.b.b.b.b.b.b.b.b.",
"b.b.b.b.b.b.b.a e.p . ; ; b.b.b.b.b.b.b.b.b.b.b.b.b.b.b.b.b.b.b.",
"b.b.b.b.b.b.b.a w.a b.b.b.b.b.b.b.b.b.b.b.b.b.b.b.b.b.b.b.b.b.b.",
"b.b.b.b.b.b.b.a w.a b.b.b.b.b.b.b.b.b.b.b.b.b.b.b.b.b.b.b.b.b.b.",
"b.b.b.b.b.b.b.a w.a b.b.b.b.b.b.b.b.b.b.b.b.b.b.b.b.b.b.b.b.b.b.",
"b.b.b.b.b.b.b.4 2.4 b.b.b.b.b.b.b.b.b.b.b.b.b.b.b.b.b.b.b.b.b.b.",
"b.b.b.b.b.b.t p g p t b.b.b.b.b.b.b.b.b.b.b.b.b.b.b.b.b.b.b.b.b.",
"b.b.b.b.b.w 9.f.g.d.8.e b.b.b.b.b.b.b.b.b.b.b.b.b.b.b.b.b.b.b.b.",
"b.b.b.b.b.* X.i.q.0...- b.b.b.b.b.b.b.b.b.b.b.b.b.b.b.b.b.b.b.b.",
"b.b.b.b.b.  : u y r =   b.b.b.b.b.b.b.b.b.b.b.b.b.b.b.b.b.b.b.b."
};
