/* XPM */
static char *result[] = {
/* columns rows colors chars-per-pixel */
"32 32 14 1 ",
"  c #8BC34A",
". c #8AC34A",
"X c #85C14B",
"o c #89C24A",
"O c #66B74E",
"+ c #79BD4C",
"@ c #7FBF4B",
"# c #65B74E",
"$ c #84C14B",
"% c #61B64E",
"& c #60B54E",
"* c #7EBF4B",
"= c #67B74D",
"- c white",
/* pixels */
"                                ",
"                                ",
"                                ",
"   .XoX.                        ",
"   XO+OX                        ",
"   .@#@.                        ",
"    .X.               .$$oX.    ",
"                      X%&+OX    ",
"                      .$*#@.    ",
"                        .X.     ",
"                                ",
"                                ",
"                                ",
"                     .X.        ",
"       .XoX.         X=X        ",
"       XO+OX         .X.        ",
"       .@#@.                    ",
"        .X.                     ",
"                                ",
"                                ",
"                                ",
"                                ",
"                .Xo$$.          ",
"                XO+&%X          ",
"                .@#*$.          ",
"      .X.        .X.            ",
"      X=X                       ",
"      .X.                       ",
"                                ",
"                                ",
"                                ",
"                                "
};
