/* XPM */
static char *result[] = {
/* columns rows colors chars-per-pixel */
"32 32 20 1 ",
"  c #0C0601",
". c #100401",
"X c #200802",
"o c #2D0308",
"O c #201003",
"+ c #2D1706",
"@ c #351304",
"# c #020A20",
"$ c #4D1D08",
"% c #4D1F0A",
"& c #610813",
"* c #61270D",
"= c #1B2E65",
"- c #8E0919",
"; c #C60E0E",
": c #C6834F",
"> c #EBAD7D",
", c #3A5B92",
"< c white",
"1 c None",
/* pixels */
"111111111111&&&&oo11111111111111",
"111111111111&-;;--oo111111111111",
"111111111111&<;;;;--o11111111111",
"1111111111&&o<<;;;;--o1111111111",
"111111111&--;;;;;----o1111111111",
"1111111111+o:::=::@@@O1111111111",
"111111111+:>>>==::@::@O111111111",
"11111111+>>>>>>>>*$::@O111111111",
"11111111+>>>>$>>>**>:$$O11111111",
"111111111+$$$$$$>>>>>$$O11111111",
"111111111+*****>>>>:**$O11111111",
"1111111111+>>>>>>::**  111111111",
"11111111111++>::====o11111111111",
"111111111111o--==;-=-o1111111111",
"111111111111o;,=;;;;=-o111111111",
"11111111111o-;,,;;;;=-o111111111",
"11111111111o;,,=;;;-=-o111111111",
"11111111111o;>:;;;;-=-o111111111",
"11111111111#>>>:;;;-=-o111111111",
"1111111111#,>>>:;;;-==#111111111",
"111111111#,,>>>>;;-===#111111111",
"111111111#,,,>::;-==,=#111111111",
"111111111#,,,=%%====,=#111111111",
"1111111111#==%%%===,=#1111111111",
"1111111111X***%%%=,=#11111111111",
"11111111111X***%%%==#11111111111",
"111111111111X*%%%==#111111111111",
"11111111111X**%===%X111111111111",
"11111111111X*%.*%%%X111111111111",
"111111111111X..**%%%X11111111111",
"111111111111X****%%%X11111111111",
"111111111111X**%%%XX111111111111"
};
