/* XPM */
static char *result[] = {
/* columns rows colors chars-per-pixel */
"32 32 19 1 ",
"  c #200802",
". c #2D0308",
"X c #201003",
"o c #2D1706",
"O c #351304",
"+ c #020A20",
"@ c #4D1D08",
"# c #4D1F0A",
"$ c #610813",
"% c #61270D",
"& c #1B2E65",
"* c #8E0919",
"= c #C60E0E",
"- c #F7CB0A",
"; c #C6834F",
": c #EBAD7D",
"> c #3A5B92",
", c white",
"< c None",
/* pixels */
"<<<<<<<<<<<<<<..$$$$<<<<<<<<<<<<",
"<<<<<<<<<<<<..**==*$<<<<<<<<<<<<",
"<<<<<<<<<<<.**====,$<<<<<<<<<<<<",
"<<<<<<<<<<.**====,,.$$<<<<<<<<<<",
"<<<<<<<<<<.****=====**$<<<<<<<<<",
"<<<<<<<<<<XOOO;;&;;;.o<<<<<<<<<<",
"<<<<<<<<<XO;;O;;&&:::;o<<<<<<<<<",
"<<<<<<<<<XO;;@%::::::::o<<<<<<<<",
"<<<<<<<<X@@;:%%:::@::::o<<<<<<<<",
"<<<<<<<<X@@:::::@@@@@@o<<<<<<<<<",
"<<<<<<<<X@%%;::::%%%%%o<<<<<<<<<",
"<<<<<<<<<XX%%::::::::o<<<<<<<<<<",
"<<<<<<<<<<<X&%;;;:**.<<<<<<<<<<<",
"<<<<<<<<<<.**&****&**$<<<<<<<<<<",
"<<<<<<<<<.*=*&**=*&==*$<<<<<<<<<",
"<<<<<<<<.*==*&===*&*===$<<<<<<<<",
"<<<<<<<<.*==&>===*&&===$<<<<<<<<",
"<<<<<<<.*==*&&=***&&*===$<<<<<<<",
"<<<<<<<.*==*&&>>>&&&*===$<<<<<<<",
"<<<<<<<.*==*&->>>&-&*===$<<<<<<<",
"<<<<<<<o:::;&>>>>>&&;:::o<<<<<<<",
"<<<<<<<o;::;&>>>>>&&;::;o<<<<<<<",
"<<<<<<<<o::;&>>>>>&&;::o<<<<<<<<",
"<<<<<<<<o;;&>>>>>>>&&;;o<<<<<<<<",
"<<<<<<<<<X&>>>>&&>>>>&X<<<<<<<<<",
"<<<<<<<<+>>>>>&++&>>>>>+<<<<<<<<",
"<<<<<<<<+>>>>&+<<+&>>>>+<<<<<<<<",
"<<<<<<<<+>&&&&+<<+&&>>>+<<<<<<<<",
"<<<<<<<<< #%%# << #%%% <<<<<<<<<",
"<<<<<<<<  #%%# << #%%%  <<<<<<<<",
"<<<<<<< ##%%%# << ##%%%% <<<<<<<",
"<<<<<<< #%%%%# << ####%% <<<<<<<"
};
