/* XPM */
static char *result[] = {
/* columns rows colors chars-per-pixel */
"32 32 179 2 ",
"   c black",
".  c #0A0306",
"X  c #151200",
"o  c #1F0812",
"O  c #1D1A1B",
"+  c #241E00",
"@  c #211A0F",
"#  c #200812",
"$  c #231917",
"%  c #2C2502",
"&  c #2F2801",
"*  c #312901",
"=  c #382F01",
"-  c #3E3501",
";  c #39360A",
":  c #292217",
">  c #31281C",
",  c #370F20",
"<  c #381324",
"1  c #341321",
"2  c #35202A",
"3  c #352E29",
"4  c #3F3426",
"5  c #2E2E30",
"6  c #3F2530",
"7  c #252324",
"8  c #433402",
"9  c #443A00",
"0  c #4A3F02",
"q  c #63341F",
"w  c #511432",
"e  c #45162A",
"r  c #5D2F22",
"t  c #452A36",
"y  c #442733",
"u  c #413727",
"i  c #613222",
"p  c #20413F",
"a  c #4D4102",
"s  c #514401",
"d  c #564801",
"f  c #514F15",
"g  c #7F5B02",
"h  c #796603",
"j  c #7D6903",
"k  c #766718",
"l  c #7C781B",
"z  c #4F412C",
"x  c #4D463D",
"c  c #544534",
"v  c #755B22",
"b  c #7A5D22",
"n  c #64513D",
"m  c #796328",
"M  c #5F2B42",
"N  c #573242",
"B  c #5A3648",
"V  c #663A4E",
"C  c #71354F",
"Z  c #1E484F",
"A  c #514F50",
"S  c #5B5855",
"D  c #6D5941",
"F  c #6C5742",
"G  c #6C4155",
"H  c #78485E",
"J  c #704457",
"K  c #7B5D51",
"L  c #507D5F",
"P  c #7F674C",
"I  c #796247",
"U  c #60605E",
"Y  c #746859",
"T  c #73754B",
"R  c #7B5967",
"E  c #6C6D6D",
"W  c #75646C",
"Q  c #776E65",
"!  c #7D756B",
"~  c #7C6A72",
"^  c #78797B",
"/  c #AF4900",
"(  c #AD5601",
")  c #876803",
"_  c #877202",
"`  c #8B7501",
"'  c #8F7802",
"]  c #8C7A0A",
"[  c #947D02",
"{  c #816B16",
"}  c #86751D",
"|  c #85254E",
" . c #9D2C5E",
".. c #8B2A57",
"X. c #A02F62",
"o. c #AF3F6F",
"O. c #836B4E",
"+. c #876F50",
"@. c #8A7253",
"#. c #9A725C",
"$. c #9C5C79",
"%. c #B14071",
"&. c #B44A77",
"*. c #A45479",
"=. c #83767C",
"-. c #64804A",
";. c #608150",
":. c #9F8502",
">. c #9D8809",
",. c #A58B02",
"<. c #AA8F00",
"1. c #AD9103",
"2. c #B09503",
"3. c #B69903",
"4. c #B8BB3A",
"5. c #C3A504",
"6. c #C7A803",
"7. c #CCAB03",
"8. c #D4B304",
"9. c #D9B605",
"0. c #E2BE05",
"q. c #DF973A",
"w. c #E6C105",
"e. c #EAC505",
"r. c #EFC905",
"t. c #F2CC05",
"y. c #A78764",
"u. c #B1826E",
"i. c #B3916A",
"p. c #BE8977",
"a. c #BA9870",
"s. c #D9864C",
"d. c #E69E4F",
"f. c #E9A156",
"g. c #F3B357",
"h. c #C39F77",
"j. c #C7A279",
"k. c #F1AA72",
"l. c #AE5F82",
"z. c #AE6986",
"x. c #A86582",
"c. c #B06988",
"v. c #CE5589",
"b. c #CC5085",
"n. c #C9769A",
"m. c #D0739B",
"M. c #D76395",
"N. c #D07DA1",
"B. c #E57CA9",
"V. c #E97AAD",
"C. c #949393",
"Z. c #9C9D9D",
"A. c #969899",
"S. c #93958C",
"D. c #A69685",
"F. c #BAAA98",
"G. c #B1B0B0",
"H. c #A9A9A9",
"J. c #EE9F99",
"K. c #F19E95",
"L. c #F09B9C",
"P. c #F1A289",
"I. c #F6A694",
"U. c #FABD97",
"Y. c #F7B995",
"T. c #E883AF",
"R. c #E986B1",
"E. c #ED8AB5",
"W. c #EF91B9",
"Q. c #F292BC",
"!. c #F9CB96",
"~. c #F8C896",
"^. c #FFD19B",
"/. c #FEDEBA",
"(. c #D1D2D3",
"). c #DDDDDD",
"_. c #FDE5CB",
"`. c white",
"'. c None",
/* pixels */
"'.'.'.'.'.'.'.'.'.'.'.'.'.'.'.'.'.'.'.'.'.'.'.'.'.'.'.'.'.'.'.'.",
"'.'.'.'.'.'.'.'.'.'.'.'.'.'.'.% % X '.% '.'.'.'.'.'.'.'.'.'.'.'.",
"'.'.'.'.'.'.'.'.'.'.'.'.'.'.  f k ) g l f '.'.'.'.'.'.'.'.'.'.'.",
"'.'.'.'.'.'.'.'.'.'.'.'.'.* * Z ;./ ( ;.p '.'.'.'.'.'.'.'.'.'.'.",
"'.'.'.'.'.'.'.'.'.'.'.'._ 9.0.] ; ; 8 ; >.h '.'.'.'.'.'.'.'.'.'.",
"'.'.'.'.'.'.'.'.'.'.'.j w.t.t.e.w.0.0.w.t.w.0 '.'.'.'.'.'.'.'.'.",
"'.'.'.'.'.'.'.'.X - j e.t.r.t.9.1.9.t.6.2.9.h '.'.'.'.'.'.'.'.'.",
"'.'.'.'.'.'.'.'.- 3.e.t.t.t.9.d : { 1.k @ :.r.0 '.'.'.'.'.'.'.'.",
"'.'.'.'.'.'.'.'.% _ r.8.:.,.l x Y I z O.Y } ,.9 '.'.'.'.'.'.'.'.",
"'.'.'.'.'.'.'.'.- 3.t.[ : : n _.^ P !.n A.U   '.'.'.'.'.'.'.'.'.",
"'.'.'.'.'.'.'.'.'.s t.' n i.y./.D.i.!.#.F.S '.'.'.'.'.'.'.'.'.'.",
"'.'.'.'.'.'.'.'.'.a t.3.T S.h.^.~.~.Y.U.!.c   '.'.'.'.'.'.'.'.'.",
"'.'.'.'.'.'.'.'.% [ r.t.4.T m j.!.Y.I.~.a.v % '.'.'.'.'.'.'.'.'.",
"'.'.'.'.'.'.'.& [ 7.1.t.5._ - 4 +.p.J.u.> s - '.'.'.'.'.'.'.'.'.",
"'.'.'.'.'.'.'.= j h :.6.v G G J V l.V.$.G G 2 '.'.'.'.'.'.'.'.'.",
"'.'.'.'.'.'.'.'.  s 6.v x.Q.Q.Q.Q.Q.P.K.Q.Q.$.J 2 '.'.'.'.'.'.'.",
"'.'.'.'.'.'.'.'.= ,.:.B Q.Q.Q.B.V.P.d.f.L.Q.Q.Q.t '.'.'.'.'.'.'.",
"'.'.'.'.'.'.'.'.a t.6.b J J C M *.g.s.q.k.$.V G $ '.'.'.'.'.'.'.",
"'.'.'.'.'.'.'.'.& [ t.7.a 3 +.u H I.d.f.#.K O.:   '.'.'.'.'.'.'.",
"'.'.'.'.'.'.'.'.'.% [ t.` D ^.O.H Q.K.L.B 4 j.c '.'.'.'.'.'.'.'.",
"'.'.'.'.'.'.'.'.'.- 2.t.` F i.! ~ x.Q.$.=.Z.Y > '.'.'.'.'.'.'.'.",
"'.'.'.'.'.'.'.'.'.& [ t.8.k Q (.(.W x.V Z.Z.5 '.'.'.'.'.'.'.'.'.",
"'.'.'.'.'.'.'.'.'.'.d t.2.i V H.`.(.W =.).S '.'.'.'.'.'.'.'.'.'.",
"'.'.'.'.'.'.'.'.'.9 5.t._ w &.R A G.E C.C.O '.'.'.'.'.'.'.'.'.'.",
"'.'.'.'.'.'.'.'.'.s e.1.i  .M.N.x.R 7 5 C | , '.'.'.'.'.'.'.'.'.",
"'.'.'.'.'.'.'.'.'.% 8 r  .v.R.Q.Q.N.c.c.m.b.e '.'.'.'.'.'.'.'.'.",
"'.'.'.'.'.'.'.'.'.< ..X.v.R.Q.Q.Q.Q.Q.Q.Q.R.n.6 '.'.'.'.'.'.'.'.",
"'.'.'.'.'.'.'.'.'.N B.V.R.Q.W.W.W.Q.W.W.W.Q.W.N '.'.'.'.'.'.'.'.",
"'.'.'.'.'.'.'.'.t m.E.W.E.E.E.E.E.E.E.E.E.E.E.n.6 '.'.'.'.'.'.'.",
"'.'.'.'.'.'.'.'.< %.%.%.%.%.%.%.o.o.o.o.%.%.%.o.1 '.'.'.'.'.'.'.",
"'.'.'.'.'.'.'.'.. # # # # # # # # # # # # # # o . '.'.'.'.'.'.'.",
"'.'.'.'.'.'.'.'.'.'.'.'.'.'.'.'.'.'.'.'.'.'.'.'.'.'.'.'.'.'.'.'."
};
