/* XPM */
static char *result[] = {
/* columns rows colors chars-per-pixel */
"32 32 19 1 ",
"  c #0C0601",
". c #200802",
"X c #2D0308",
"o c #201003",
"O c #2D1706",
"+ c #351304",
"@ c #020A20",
"# c #4D1D08",
"$ c #4D1F0A",
"% c #610813",
"& c #61270D",
"* c #1B2E65",
"= c #8E0919",
"- c #C60E0E",
"; c #C6834F",
": c #EBAD7D",
"> c #3A5B92",
", c white",
"< c None",
/* pixels */
"<<<<<<<<<<<<<<<<<<<<<<<<<<<<<<<<",
"<<<<<<<<<<<<<<XX%%%%<<<<<<<<<<<<",
"<<<<<<<<<<<<XX==--=%<<<<<<<<<<<<",
"<<<<<<<<<<<X==----,%<<<<<<<<<<<<",
"<<<<<<<<<<X==----,,X%%<<<<<<<<<<",
"<<<<<<<<<<X====-----==%<<<<<<<<<",
"<<<<<<<<<<o+++;;*;;;XO<<<<<<<<<<",
"<<<<<<<<<o+;;+;;**:::;O<<<<<<<<<",
"<<<<<<<<<o+;;#&::::::::O<<<<<<<<",
"<<<<<<<<o##;:&&:::#::::O<<<<<<<<",
"<<<<<<<<o##:::::######O<<<<<<<<<",
"<<<<<<<<o#&&;::::&&&&&O<<<<<<<<<",
"<<<<<<<<<  &&;:::::::O<<<<<<<<<<",
"<<<<<<<<<<X=***;;:OOO<<<<<<<<<<<",
"<<<<<<<<<X=*==-*=%<<<<<<<<<<<<<<",
"<<<<<<<<<X=*=---*=%OO<<<<<<<<<<<",
"<<<<<<<<X==*=---=**;;OO<<<<<<<<<",
"<<<<<<<<X=**=----==;:::O<<<<<<<<",
"<<<<<<<<X=>**------;:::O<<<<<<<<",
"<<<<<<<<<@>**=------:::O<<<<<<<<",
"<<<<<<<<<@*>**=----=;::O<<<<<<<<",
"<<<<<<<<<@*>****==-* OO<<<<<<<<<",
"<<<<<<<<<@*>>*******@<<<<<<<<<<<",
"<<<<<<<..@**>>>****=@<<<<<<<<<<<",
"<<<<<<.$$$$*>>>>>*=>>@<<<<<<<<<<",
"<<<<<<.&&&$*>>**==**>@<<<<<<<<<<",
"<<<<<<.&&&$****=****@<<<<<<<<<<<",
"<<<<<<.&&$$***@@****@<<<<<<<<<<<",
"<<<<<<.&$$$@@@<.$$$$.<<<<<<<<<<<",
"<<<<<<.$$..<<<<.$$$$..<<<<<<<<<<",
"<<<<<<.$.<<<<<<.$$&&&&.<<<<<<<<<",
"<<<<<<<.<<<<<<<.$$$&&&.<<<<<<<<<"
};
