/* XPM */
static char *result[] = {
/* columns rows colors chars-per-pixel */
"32 32 20 1 ",
"  c #0C0601",
". c #100401",
"X c #200802",
"o c #2D0308",
"O c #201003",
"+ c #2D1706",
"@ c #351304",
"# c #020A20",
"$ c #4D1D08",
"% c #4D1F0A",
"& c #610813",
"* c #61270D",
"= c #1B2E65",
"- c #8E0919",
"; c #C60E0E",
": c #C6834F",
"> c #EBAD7D",
", c #3A5B92",
"< c white",
"1 c None",
/* pixels */
"11111111111111oo&&&&111111111111",
"111111111111oo--;;-&111111111111",
"11111111111o--;;;;<&111111111111",
"1111111111o--;;;;<<o&&1111111111",
"1111111111o----;;;;;--&111111111",
"1111111111O@@@::=:::o+1111111111",
"111111111O@::@::==>>>:+111111111",
"111111111O@::$*>>>>>>>>+11111111",
"11111111O$$:>**>>>$>>>>+11111111",
"11111111O$$>>>>>$$$$$$+111111111",
"11111111O$**:>>>>*****+111111111",
"111111111  **::>>>>>>+1111111111",
"11111111111o====::>++11111111111",
"1111111111o-=-;==--o111111111111",
"111111111o-=;;;;=,;o111111111111",
"111111111o-=;;;;,,;-o11111111111",
"111111111o-=-;;;=,,;o11111111111",
"111111111o-=-;;;;:>;o11111111111",
"111111111o-=-;;;:>>>#11111111111",
"111111111#==-;;;:>>>,#1111111111",
"111111111#===-;;>>>>,,#111111111",
"111111111#=,==-;::>,,,#111111111",
"111111111#=,====%%=,,,#111111111",
"1111111111#=,===%%%==#1111111111",
"11111111111#=,=%%%***X1111111111",
"11111111111#==%%%***X11111111111",
"111111111111#==%%%*X111111111111",
"111111111111X%===%**X11111111111",
"111111111111X%%%*.%*X11111111111",
"11111111111X%%%**..X111111111111",
"11111111111X%%%****X111111111111",
"111111111111XX%%%**X111111111111"
};
