/* XPM */
static char *result[] = {
/* columns rows colors chars-per-pixel */
"32 32 20 1 ",
"  c black",
". c #200802",
"X c #2D0308",
"o c #201003",
"O c #2D1706",
"+ c #351304",
"@ c #020A20",
"# c #4D1D08",
"$ c #4D1F0A",
"% c #610813",
"& c #61270D",
"* c #1B2E65",
"= c #8E0919",
"- c #C60E0E",
"; c #F7CB0A",
": c #C6834F",
"> c #EBAD7D",
", c #3A5B92",
"< c white",
"1 c None",
/* pixels */
"11111111111111XX%%%%111111111111",
"111111111111XX==--=%111111111111",
"11111111111X==----<%111111111111",
"1111111111X==----<<X%%1111111111",
"1111111111X====-----==%111111111",
"1111111111o+++::*:::XO1111111111",
"111111111o+::+::**>>>:O111111111",
"111111111o+::#&>>>>>>>>O11111111",
"11111111o##:>&&>>>#>>>>O11111111",
"11111111o##>>>>>######O111111111",
"11111111o#&&:>>>>&&&&&O111111111",
"111111111oo&&::>>>>>>O1111111111",
"11111111111o &&&::>OO1O111111111",
"11111111111X****==*@1O>O11111111",
"1111111111X====**-=*@>>>O1111111",
"111111111X=--===**-*=>>>O1111111",
"11111111X=----==*,-=*>>>O1111111",
"11111111X=-----=*,-=*=>-X1111111",
"11111111X-----=*,,-=*=-X11111111",
"1111111X=----=*,,;,=;-X111111111",
"1111111O>>>>>*,,,,,,*X1.11111111",
"1111111O>>>>>*,,,,,,*@.&.1111111",
"1111111O>>>>**,,,,,**.$&.1111111",
"11111111O>>>***,,,*$$$&&.1111111",
"111111111O@*=***,,*$&&&&.1111111",
"11111111..$**=*****$$&&&.1111111",
"1111111.$$$***==***$$$$&.1111111",
"1111111.$$&&****@@@.....11111111",
"1111111.$$&&&*@@1111111111111111",
"11111111.$&&.@111111111111111111",
"11111111.$$&.1111111111111111111",
"111111111.$$&.111111111111111111"
};
